<svg width="20" height="20" viewBox="0 0 20 20" xmlns="http://www.w3.org/2000/svg">
<path id="path" fill-rule="evenodd" clip-rule="evenodd" d="M9.99999 1.66666C5.39999 1.66666 1.66666 5.39999 1.66666 9.99999C1.66666 14.6 5.39999 18.3333 9.99999 18.3333C14.6 18.3333 18.3333 14.6 18.3333 9.99999C18.3333 5.39999 14.6 1.66666 9.99999 1.66666ZM9.16666 15.8333V14.1667H10.8333V15.8333H9.16666ZM11.8083 10.1417L12.5583 9.37499C13.4083 8.52499 13.7 7.06666 12.7167 5.70832C11.9667 4.66666 10.7583 4.00832 9.49166 4.20832C8.19999 4.40832 7.15832 5.34166 6.79999 6.56666C6.66666 7.03332 6.99999 7.49999 7.48332 7.49999H7.73332C8.05832 7.49999 8.31666 7.26666 8.41666 6.95832C8.69166 6.16666 9.54999 5.64166 10.475 5.89999C11.0583 6.06666 11.525 6.57499 11.6333 7.17499C11.7417 7.75832 11.5583 8.30832 11.175 8.67499L10.1417 9.72499C9.79166 10.075 9.51666 10.5083 9.34999 10.9917C9.23332 11.3333 9.16666 11.7 9.16666 12.0833V12.5H10.8333C10.8333 12.1167 10.875 11.8167 10.9417 11.55C11.0917 10.95 11.3917 10.5667 11.8083 10.1417Z" />
</svg>
