<svg width="20" height="20" viewBox="0 0 20 20" fill="none" xmlns="http://www.w3.org/2000/svg">
<path d="M5.70476 9.24242C5.50343 9.24242 5.35808 9.43512 5.41339 9.6287L7.36144 16.4469C7.39861 16.577 7.51752 16.6667 7.65281 16.6667H8.63566C8.77067 16.6667 8.8894 16.5773 8.92682 16.4476L9.99999 12.7273L11.0732 16.4476C11.1106 16.5773 11.2293 16.6667 11.3643 16.6667H12.3472C12.4825 16.6667 12.6014 16.577 12.6385 16.4469L14.5866 9.6287C14.6419 9.43512 14.4966 9.24242 14.2952 9.24242H13.2606C13.1245 9.24242 13.0051 9.33319 12.9686 9.46435L11.8939 13.3333L10.7461 9.45937C10.708 9.3307 10.5897 9.24242 10.4555 9.24242H9.54444C9.41024 9.24242 9.29202 9.3307 9.2539 9.45937L8.10605 13.3333L7.03134 9.46435C6.9949 9.33319 6.87549 9.24242 6.73936 9.24242H5.70476Z" fill="#1F8CEB"/>
<path fill-rule="evenodd" clip-rule="evenodd" d="M4.54545 0C3.03922 0 1.81818 1.221 1.81818 2.72727V17.2727C1.81818 18.779 3.03922 20 4.54545 20H15.4545C16.9608 20 18.1818 18.779 18.1818 17.2727V7.86858C18.1818 7.38977 17.9929 6.93034 17.6561 6.58987L11.67 0.539477C11.3285 0.194277 10.8631 0 10.3775 0H4.54545ZM4.54545 1.81818C4.04337 1.81818 3.63636 2.22523 3.63636 2.72727V17.2727C3.63636 17.7748 4.04337 18.1818 4.54545 18.1818H15.4545C15.9566 18.1818 16.3636 17.7748 16.3636 17.2727V8.18182H12.7273C11.221 8.18182 9.99999 6.96082 9.99999 5.45455V1.81818H4.54545ZM11.8182 3.0303L15.1515 6.36364H12.7273C12.2252 6.36364 11.8182 5.95659 11.8182 5.45455V3.0303Z" fill="#1F8CEB"/>
</svg>
