<svg width="20" height="20" viewBox="0 0 20 20" fill="none" xmlns="http://www.w3.org/2000/svg">
<path fill-rule="evenodd" clip-rule="evenodd" d="M7.27272 9.54545C7.27272 9.29442 7.47623 9.09091 7.72727 9.09091H10.1515C11.5741 9.09091 12.7273 10.2441 12.7273 11.6667C12.7273 13.0892 11.5741 14.2424 10.1515 14.2424H9.0909V16.2121C9.0909 16.4632 8.8874 16.6667 8.63636 16.6667H7.72727C7.47623 16.6667 7.27272 16.4632 7.27272 16.2121V9.54545ZM9.0909 12.5758V10.7576H10.1515C10.6536 10.7576 11.0606 11.1646 11.0606 11.6667C11.0606 12.1687 10.6536 12.5758 10.1515 12.5758H9.0909Z" fill="#DB4C3F"/>
<path fill-rule="evenodd" clip-rule="evenodd" d="M4.54545 0C3.03922 0 1.81818 1.221 1.81818 2.72727V17.2727C1.81818 18.779 3.03922 20 4.54545 20H15.4545C16.9608 20 18.1818 18.779 18.1818 17.2727V7.86858C18.1818 7.38977 17.9929 6.93034 17.6561 6.58987L11.67 0.539477C11.3285 0.194277 10.8631 0 10.3775 0H4.54545ZM4.54545 1.81818C4.04337 1.81818 3.63636 2.22523 3.63636 2.72727V17.2727C3.63636 17.7748 4.04337 18.1818 4.54545 18.1818H15.4545C15.9566 18.1818 16.3636 17.7748 16.3636 17.2727V8.18182H12.7273C11.221 8.18182 9.99999 6.96082 9.99999 5.45455V1.81818H4.54545ZM11.8182 3.0303L15.1515 6.36364H12.7273C12.2252 6.36364 11.8182 5.95659 11.8182 5.45455V3.0303Z" fill="#DB4C3F"/>
</svg>
