<svg width="20" height="20" viewBox="0 0 20 20" xmlns="http://www.w3.org/2000/svg">
<path fill-rule="evenodd" clip-rule="evenodd" d="M7.9144 2.20119L12.3613 3.75739C12.5659 3.82854 12.7793 3.81964 12.975 3.7485L15.5809 2.73474C16.746 2.28122 18 3.13491 18 4.38877V14.9265C18 15.6913 17.5108 16.376 16.7904 16.6161L13.2418 17.8077C12.8683 17.9322 12.4591 17.9322 12.0856 17.7988L7.63869 16.2426C7.44302 16.1715 7.22068 16.1715 7.02501 16.2515L4.41912 17.2653C3.25403 17.7188 2 16.8651 2 15.6112V5.0735C2 4.30874 2.48916 3.6329 3.20956 3.38391L6.7582 2.1923C7.13174 2.0678 7.54086 2.0678 7.9144 2.20119ZM7.3363 14.2507L12.6726 16.127V5.74936L7.3363 3.87302V14.2507Z" />
</svg>
