<svg width="20" height="20" viewBox="0 0 20 20" fill="none" xmlns="http://www.w3.org/2000/svg">
<path d="M8.63637 9.09091C8.63637 10.0951 7.82234 10.9091 6.81818 10.9091C5.81403 10.9091 5 10.0951 5 9.09091C5 8.08675 5.81403 7.27273 6.81818 7.27273C7.82234 7.27273 8.63637 8.08675 8.63637 9.09091Z" fill="#6035DA"/>
<path fill-rule="evenodd" clip-rule="evenodd" d="M1.81818 2.72727C1.81818 1.221 3.03923 0 4.54546 0H10.3776C10.8631 0 11.3285 0.194277 11.6701 0.539477L17.6561 6.58987C17.9929 6.93034 18.1818 7.38977 18.1818 7.86858V17.2727C18.1818 18.779 16.9608 20 15.4545 20H4.54546C3.03923 20 1.81818 18.779 1.81818 17.2727V2.72727ZM3.63637 2.72727C3.63637 2.22523 4.04338 1.81818 4.54546 1.81818H10V5.45455C10 6.96082 11.221 8.18182 12.7273 8.18182H16.3636V14.0157L13.6203 11.2695C13.2657 10.9149 12.691 10.9144 12.3358 11.2684L11.6885 11.9135L9.94606 13.6603L9.41707 13.1314L9.41788 13.1305L8.77136 12.4848C8.41515 12.1291 7.83763 12.1305 7.48324 12.4881L6.84577 13.1314L3.63637 16.3408V2.72727ZM4.38137 18.167C4.43459 18.1768 4.48943 18.1818 4.54546 18.1818H15.4545C15.9566 18.1818 16.3636 17.7748 16.3636 17.2727V16.5288L16.3337 16.5587L12.9764 13.2013L9.35272 16.825C8.9977 17.18 8.42209 17.18 8.06707 16.825C7.71205 16.47 7.71205 15.8944 8.06707 15.5393L8.66041 14.946L8.13142 14.417L4.38137 18.167ZM15.1515 6.36364L11.8182 3.0303V5.45455C11.8182 5.95659 12.2252 6.36364 12.7273 6.36364H15.1515Z" fill="#6035DA"/>
</svg>
