<svg width="20" height="20" viewBox="0 0 20 20" xmlns="http://www.w3.org/2000/svg">
<path id="path" d="M14.9417 5.05852C13.514 3.63253 11.4907 2.81018 9.26591 3.03764C6.05138 3.36133 3.40618 5.96836 3.04706 9.17902C2.56532 13.422 5.84993 17.0001 9.99291 17.0001C12.787 17.0001 15.187 15.3641 16.3081 13.0108C16.5884 12.4247 16.168 11.751 15.5198 11.751C15.1957 11.751 14.8892 11.926 14.749 12.2147C13.7593 14.3406 11.3856 15.6878 8.79293 15.1104C6.84845 14.6818 5.2806 13.0983 4.86893 11.1562C4.13317 7.76178 6.71706 4.75233 9.99291 4.75233C11.4469 4.75233 12.7432 5.35597 13.6892 6.30954L12.3666 7.63055C11.8148 8.1817 12.2002 9.12653 12.9797 9.12653H16.1242C16.6059 9.12653 17.0001 8.73285 17.0001 8.25169V5.11101C17.0001 4.3324 16.0541 3.93873 15.5023 4.48988L14.9417 5.05852Z" />
</svg>
