<svg width="20" height="20" viewBox="0 0 20 20" xmlns="http://www.w3.org/2000/svg">
<path id="path" fill-rule="evenodd" clip-rule="evenodd" d="M9.99999 1.66666C5.39999 1.66666 1.66666 5.39999 1.66666 9.99999C1.66666 14.6 5.39999 18.3333 9.99999 18.3333C14.6 18.3333 18.3333 14.6 18.3333 9.99999C18.3333 5.39999 14.6 1.66666 9.99999 1.66666ZM9.99999 10.8333C9.54166 10.8333 9.16666 10.4583 9.16666 9.99999V6.66666C9.16666 6.20832 9.54166 5.83332 9.99999 5.83332C10.4583 5.83332 10.8333 6.20832 10.8333 6.66666V9.99999C10.8333 10.4583 10.4583 10.8333 9.99999 10.8333ZM9.16666 12.5V14.1667H10.8333V12.5H9.16666Z" />
</svg>
