<svg width="20" height="20" viewBox="0 0 20 20" xmlns="http://www.w3.org/2000/svg">
<path d="M9.99999 1.66666C5.39999 1.66666 1.66666 5.39999 1.66666 9.99999C1.66666 14.6 5.39999 18.3333 9.99999 18.3333C14.6 18.3333 18.3333 14.6 18.3333 9.99999C18.3333 5.39999 14.6 1.66666 9.99999 1.66666ZM9.16666 16.6083C5.87499 16.2 3.33332 13.4 3.33332 9.99999C3.33332 9.48332 3.39999 8.99166 3.50832 8.50832L7.49999 12.5V13.3333C7.49999 14.25 8.24999 15 9.16666 15V16.6083ZM14.9167 14.4917C14.7 13.8167 14.0833 13.3333 13.3333 13.3333H12.5V10.8333C12.5 10.375 12.125 9.99999 11.6667 9.99999H6.66666V8.33332H8.33332C8.79166 8.33332 9.16666 7.95832 9.16666 7.49999V5.83332H10.8333C11.75 5.83332 12.5 5.08332 12.5 4.16666V3.82499C14.9417 4.81666 16.6667 7.20832 16.6667 9.99999C16.6667 11.7333 16 13.3083 14.9167 14.4917Z" />
</svg>
