<svg width="20" height="20" viewBox="0 0 20 20" fill="none" xmlns="http://www.w3.org/2000/svg">
<path d="M6.81818 5.75758V3.63636H8.93939V5.75758H6.81818Z" fill="#FFA12A"/>
<path d="M6.81818 7.87879H4.69696V5.75758H6.81818V7.87879Z" fill="#FFA12A"/>
<path d="M6.81818 10V7.87879H8.93939V10H6.81818Z" fill="#FFA12A"/>
<path d="M6.81818 12.1212H4.69696V10H6.81818V12.1212Z" fill="#FFA12A"/>
<path d="M6.81818 14.2424V12.1212H8.93939V14.2424H6.81818Z" fill="#FFA12A"/>
<path d="M6.81818 14.2424H4.69696V16.3636H6.81818V14.2424Z" fill="#FFA12A"/>
<path fill-rule="evenodd" clip-rule="evenodd" d="M4.54545 0C3.03922 0 1.81818 1.221 1.81818 2.72727V17.2727C1.81818 18.779 3.03922 20 4.54545 20H15.4545C16.9608 20 18.1818 18.779 18.1818 17.2727V7.86858C18.1818 7.38977 17.9929 6.93034 17.6561 6.58987L11.67 0.539477C11.3285 0.194277 10.8631 0 10.3775 0H4.54545ZM4.54545 1.81818C4.04337 1.81818 3.63636 2.22523 3.63636 2.72727V17.2727C3.63636 17.7748 4.04337 18.1818 4.54545 18.1818H6.81818V16.3636H8.93939V18.1818H15.4545C15.9566 18.1818 16.3636 17.7748 16.3636 17.2727V8.18182H12.7273C11.221 8.18182 9.99999 6.96082 9.99999 5.45455V1.81818H6.81818V3.63636H4.69696V1.81818H4.54545ZM11.8182 3.0303L15.1515 6.36364H12.7273C12.2252 6.36364 11.8182 5.95659 11.8182 5.45455V3.0303Z" fill="#FFA12A"/>
</svg>
