<svg width="20" height="20" viewBox="0 0 20 20" xmlns="http://www.w3.org/2000/svg">
<path d="M9.16668 2.5C8.70644 2.5 8.33334 2.8731 8.33334 3.33333V3.50003C4.79496 4.21828 2.0707 7.17847 1.70782 10.8333H1.66668C1.20644 10.8333 0.833344 11.2064 0.833344 11.6667V13.3333C0.833344 13.7936 1.20644 14.1667 1.66668 14.1667H3.33334C3.79358 14.1667 4.16668 13.7936 4.16668 13.3333V11.6667C4.16668 11.2064 3.79358 10.8333 3.33334 10.8333H3.38492C3.72667 8.09271 5.73194 5.8687 8.3584 5.20363C8.44927 5.56544 8.77668 5.83333 9.16668 5.83333H10.8333C11.2233 5.83333 11.5508 5.56544 11.6416 5.20363C14.2681 5.8687 16.2733 8.09271 16.6151 10.8333H16.6667C16.2064 10.8333 15.8333 11.2064 15.8333 11.6667V13.3333C15.8333 13.7936 16.2064 14.1667 16.6667 14.1667H18.3333C18.7936 14.1667 19.1667 13.7936 19.1667 13.3333V11.6667C19.1667 11.2064 18.7936 10.8333 18.3333 10.8333H18.2922C17.9293 7.17847 15.2051 4.21828 11.6667 3.50003V3.33333C11.6667 2.8731 11.2936 2.5 10.8333 2.5H9.16668Z" />
<path d="M5.99911 12.9708L8.78575 6.875H9.1667V13.3333C9.1667 13.7936 9.53979 14.1667 10 14.1667C10.4603 14.1667 10.8334 13.7936 10.8334 13.3333V6.875H11.2143L14.001 12.9708C14.1058 13.2 14.1012 13.4644 13.9884 13.6899L12.1985 17.2697C12.1279 17.4108 11.9837 17.5 11.8259 17.5H8.17421C8.01639 17.5 7.87212 17.4108 7.80154 17.2697L6.01165 13.6899C5.89891 13.4644 5.8943 13.2 5.99911 12.9708Z" />
</svg>
