<svg width="20" height="20" viewBox="0 0 20 20" xmlns="http://www.w3.org/2000/svg">
<path d="M5.03087 7.40966V9.18233H14.9691V7.40966C14.9691 7.04542 15.4152 6.86301 15.676 7.12057L18.4394 9.8488C18.4816 9.8905 18.5017 9.94556 18.4999 9.99996C18.5017 10.0544 18.4816 10.1095 18.4394 10.1512L15.676 12.8794C15.4152 13.137 14.9691 12.9546 14.9691 12.5903V10.8177H5.03087V12.5903C5.03087 12.9546 4.58483 13.137 4.32396 12.8794L1.56064 10.1512C1.5184 10.1095 1.49833 10.0544 1.50011 9.99996C1.49833 9.94556 1.5184 9.8905 1.56064 9.8488L4.32396 7.12057C4.58483 6.86301 5.03087 7.04542 5.03087 7.40966Z" />
</svg>
