<svg width="20" height="20" viewBox="0 0 20 20" xmlns="http://www.w3.org/2000/svg">
<path d="M14.1667 5.83332H18.3333V14.1667H14.1667V15.8333C14.1667 16.0543 14.2545 16.2663 14.4107 16.4226C14.567 16.5789 14.779 16.6667 15 16.6667H16.6667V18.3333H14.5833C14.125 18.3333 13.3333 17.9583 13.3333 17.5C13.3333 17.9583 12.5417 18.3333 12.0833 18.3333H10V16.6667H11.6667C11.8877 16.6667 12.0996 16.5789 12.2559 16.4226C12.4122 16.2663 12.5 16.0543 12.5 15.8333V4.16666C12.5 3.94564 12.4122 3.73368 12.2559 3.5774C12.0996 3.42112 11.8877 3.33332 11.6667 3.33332H10V1.66666H12.0833C12.5417 1.66666 13.3333 2.04166 13.3333 2.49999C13.3333 2.04166 14.125 1.66666 14.5833 1.66666H16.6667V3.33332H15C14.779 3.33332 14.567 3.42112 14.4107 3.5774C14.2545 3.73368 14.1667 3.94564 14.1667 4.16666V5.83332ZM1.66667 5.83332H10.8333V7.49999H3.33334V12.5H10.8333V14.1667H1.66667V5.83332ZM16.6667 12.5V7.49999H14.1667V12.5H16.6667Z" />
</svg>
