<svg width="20" height="20" viewBox="0 0 20 20" fill="none" xmlns="http://www.w3.org/2000/svg">
<path d="M5.60605 9.54545C5.27134 9.54545 4.99999 9.8168 4.99999 10.1515V10.303C4.99999 10.6377 5.27134 10.9091 5.60605 10.9091H14.3939C14.7287 10.9091 15 10.6377 15 10.303V10.1515C15 9.8168 14.7287 9.54545 14.3939 9.54545H5.60605Z" fill="#1F8CEB"/>
<path d="M4.99999 13.1818C4.99999 12.8471 5.27134 12.5758 5.60605 12.5758H14.3939C14.7287 12.5758 15 12.8471 15 13.1818V13.3333C15 13.6681 14.7287 13.9394 14.3939 13.9394H5.60605C5.27134 13.9394 4.99999 13.6681 4.99999 13.3333V13.1818Z" fill="#1F8CEB"/>
<path d="M5.60605 15.4545C5.27134 15.4545 4.99999 15.7259 4.99999 16.0606V16.2121C4.99999 16.5468 5.27134 16.8182 5.60605 16.8182H11.0606C11.3953 16.8182 11.6667 16.5468 11.6667 16.2121V16.0606C11.6667 15.7259 11.3953 15.4545 11.0606 15.4545H5.60605Z" fill="#1F8CEB"/>
<path fill-rule="evenodd" clip-rule="evenodd" d="M4.54545 0C3.03922 0 1.81818 1.221 1.81818 2.72727V17.2727C1.81818 18.779 3.03922 20 4.54545 20H15.4545C16.9608 20 18.1818 18.779 18.1818 17.2727V7.86858C18.1818 7.38977 17.9929 6.93034 17.6561 6.58987L11.67 0.539477C11.3285 0.194277 10.8631 0 10.3775 0H4.54545ZM4.54545 1.81818C4.04337 1.81818 3.63636 2.22523 3.63636 2.72727V17.2727C3.63636 17.7748 4.04337 18.1818 4.54545 18.1818H15.4545C15.9566 18.1818 16.3636 17.7748 16.3636 17.2727V8.18182H12.7273C11.221 8.18182 9.99999 6.96082 9.99999 5.45455V1.81818H4.54545ZM11.8182 3.0303L15.1515 6.36364H12.7273C12.2252 6.36364 11.8182 5.95659 11.8182 5.45455V3.0303Z" fill="#1F8CEB"/>
</svg>
