<svg width="20" height="20" viewBox="0 0 20 20" xmlns="http://www.w3.org/2000/svg">
<path fill-rule="evenodd" clip-rule="evenodd" d="M18.1119 8.25597L11.2531 13.513C10.5225 14.0827 9.48762 14.0827 8.75709 13.523L1.89824 8.26596C1.38078 7.86619 1.38078 7.08662 1.89824 6.68684L8.75709 1.41977C9.49776 0.860078 10.5225 0.860078 11.2531 1.41977L18.1119 6.67685C18.6294 7.07662 18.6294 7.85619 18.1119 8.25597ZM9.36586 16.5314C9.73113 16.8112 10.2486 16.8112 10.6138 16.5314L16.8538 11.744C17.2175 11.4642 17.7279 11.4642 18.0916 11.744L18.1018 11.754C18.6192 12.1538 18.6192 12.9234 18.1018 13.3232L11.2429 18.5802C10.5022 19.1399 9.47747 19.1399 8.74694 18.5802L1.88809 13.3232C1.37064 12.9234 1.37064 12.1538 1.88809 11.754C2.25181 11.4742 2.76222 11.4742 3.12593 11.754L9.36586 16.5314Z" />
</svg>
