<svg width="20" height="20" viewBox="0 0 20 20" xmlns="http://www.w3.org/2000/svg">
<path d="M15.9315 9.52745L9.84212 15.6961C8.63922 16.9147 6.6881 17.1071 5.37584 16.0109C3.87365 14.7574 3.79308 12.4952 5.13987 11.1308L12.2537 3.92436C13.0077 3.16056 14.2336 3.0148 15.0566 3.69697C16.0063 4.48408 16.0581 5.90089 15.212 6.75797L9.16873 12.88C8.85218 13.2006 8.33418 13.2006 8.01763 12.88C7.70107 12.5593 7.70107 12.0346 8.01762 11.7139L13.0537 6.61221C13.2897 6.37316 13.2897 5.97668 13.0537 5.73763C12.8177 5.49858 12.4263 5.49858 12.1904 5.73763L7.23488 10.7577C6.4809 11.5215 6.33701 12.7634 7.01041 13.5971C7.7874 14.5591 9.186 14.6116 10.0321 13.7545L15.9775 7.73166C17.1804 6.51309 17.3703 4.53656 16.2883 3.20721C15.0451 1.67962 12.8177 1.60383 11.4709 2.96816L4.40892 10.1222C2.75708 11.7955 2.48657 14.5183 3.97725 16.3433C5.69815 18.4364 8.75433 18.5472 10.6076 16.6698L16.7948 10.402C17.0308 10.163 17.0308 9.76649 16.7948 9.52745C16.5588 9.2884 16.1674 9.2884 15.9315 9.52745Z" />
</svg>
