<svg width="20" height="20" viewBox="0 0 20 20" xmlns="http://www.w3.org/2000/svg">
<path d="M17.5882 6.08983L13.9089 2.41265C13.3585 1.86256 12.4679 1.86231 11.9171 2.41274L5.48847 8.84213L11.1594 14.5098L17.5883 8.08024C18.1373 7.53143 18.1372 6.63858 17.5882 6.08983ZM15.335 7.3363C15.1517 7.51948 14.8545 7.51951 14.6711 7.3363L12.6683 5.3346C12.485 5.15138 12.485 4.85435 12.6683 4.67113C12.8516 4.48791 13.1488 4.48791 13.3321 4.67113L15.335 6.67283C15.5183 6.85601 15.5183 7.15308 15.335 7.3363Z" />
<path d="M13.5024 17.0617H8.60894L10.4973 15.1731L4.82636 9.50542L2.41177 11.9203C1.86274 12.469 1.86274 13.3618 2.41177 13.9105L6.09137 17.588C6.36341 17.8599 6.72555 18 7.08703 18H13.5024C13.7616 18 13.9718 17.7899 13.9718 17.5309C13.9718 17.2718 13.7616 17.0617 13.5024 17.0617Z" />
</svg>
