<svg width="20" height="20" viewBox="0 0 20 20" xmlns="http://www.w3.org/2000/svg">
<path fill-rule="evenodd" clip-rule="evenodd" d="M1.66667 5C0.74618 5 0 5.74615 0 6.66667V13.3333C0 14.2538 0.74618 15 1.66667 15H18.3333C19.2538 15 20 14.2538 20 13.3333V6.66667C20 5.74615 19.2538 5 18.3333 5H1.66667ZM2.91667 6.66667C2.68654 6.66667 2.5 6.85323 2.5 7.08333V8.75C2.5 8.9801 2.68654 9.16667 2.91667 9.16667H3.75C3.98013 9.16667 4.16667 8.9801 4.16667 8.75V7.08333C4.16667 6.85323 3.98013 6.66667 3.75 6.66667H2.91667ZM5.83333 7.08333C5.83333 6.85323 6.01987 6.66667 6.25 6.66667H7.08333C7.31346 6.66667 7.5 6.85323 7.5 7.08333V10.4167C7.5 10.6468 7.31346 10.8333 7.08333 10.8333H6.25C6.01987 10.8333 5.83333 10.6468 5.83333 10.4167V7.08333ZM12.9167 6.66667C12.6865 6.66667 12.5 6.85323 12.5 7.08333V10.4167C12.5 10.6468 12.6865 10.8333 12.9167 10.8333H13.75C13.9801 10.8333 14.1667 10.6468 14.1667 10.4167V7.08333C14.1667 6.85323 13.9801 6.66667 13.75 6.66667H12.9167ZM9.16667 7.08333C9.16667 6.85323 9.3532 6.66667 9.58333 6.66667H10.4167C10.6468 6.66667 10.8333 6.85323 10.8333 7.08333V8.75C10.8333 8.9801 10.6468 9.16667 10.4167 9.16667H9.58333C9.3532 9.16667 9.16667 8.9801 9.16667 8.75V7.08333ZM16.25 6.66667C16.0199 6.66667 15.8333 6.85323 15.8333 7.08333V8.75C15.8333 8.9801 16.0199 9.16667 16.25 9.16667H17.0833C17.3135 9.16667 17.5 8.9801 17.5 8.75V7.08333C17.5 6.85323 17.3135 6.66667 17.0833 6.66667H16.25Z" />
</svg>
