<svg width="20" height="20" viewBox="0 0 20 20" fill="none" xmlns="http://www.w3.org/2000/svg">
<path d="M7.92523 14.2183C7.99678 14.1812 8.0602 14.1311 8.10921 14.0671C8.32559 13.7844 8.42739 13.5367 8.55333 13.2302C8.57954 13.1664 8.6068 13.1 8.63636 13.0303C8.64922 13 8.66207 12.9698 8.67489 12.9398C8.83425 12.5662 8.98687 12.2083 9.04365 11.7133C9.08284 11.3716 8.90574 10.6826 8.7727 10.1651C8.69749 9.87252 8.63636 9.63474 8.63636 9.54545C8.63636 8.9597 9.11121 8.48485 9.69697 8.48485C10.2827 8.48485 10.7576 8.9597 10.7576 9.54545C10.7576 9.63911 10.6815 9.92071 10.5892 10.2624C10.4164 10.9019 10.1868 11.752 10.2923 11.9752C10.4541 12.3177 10.5797 12.5118 10.8333 12.803C10.9518 12.939 11.136 13.1055 11.2449 13.2009C11.3021 13.2509 11.3757 13.2759 11.4515 13.2727C11.8762 13.2549 13.3223 13.1999 13.5605 13.2638C14.1263 13.4154 14.462 13.9969 14.3104 14.5627C14.1588 15.1285 13.2876 15.2222 12.5758 15.1515C12.0767 15.1019 11.4825 14.6689 11.2082 14.4478C11.107 14.3663 10.9858 14.3106 10.856 14.305C10.3682 14.2837 10.0058 14.375 9.57119 14.562C9.3755 14.6462 9.2065 14.7799 9.06815 14.9419C8.5949 15.496 7.46887 16.8065 7.28604 16.9473C6.82194 17.3047 6.156 17.2182 5.79861 16.7541C5.44123 16.29 5.52773 15.624 5.99183 15.2667C6.15658 15.1398 7.52777 14.4247 7.92523 14.2183Z" fill="#DB4C3F"/>
<path fill-rule="evenodd" clip-rule="evenodd" d="M4.54545 0C3.03922 0 1.81818 1.221 1.81818 2.72727V17.2727C1.81818 18.779 3.03922 20 4.54545 20H15.4545C16.9608 20 18.1818 18.779 18.1818 17.2727V7.86858C18.1818 7.38977 17.9929 6.93034 17.6561 6.58987L11.67 0.539477C11.3285 0.194277 10.8631 0 10.3775 0H4.54545ZM4.54545 1.81818C4.04337 1.81818 3.63636 2.22523 3.63636 2.72727V17.2727C3.63636 17.7748 4.04337 18.1818 4.54545 18.1818H15.4545C15.9566 18.1818 16.3636 17.7748 16.3636 17.2727V8.18182H12.7273C11.221 8.18182 9.99999 6.96082 9.99999 5.45455V1.81818H4.54545ZM11.8182 3.0303L15.1515 6.36364H12.7273C12.2252 6.36364 11.8182 5.95659 11.8182 5.45455V3.0303Z" fill="#DB4C3F"/>
</svg>
