<svg width="20" height="20" viewBox="0 0 20 20" xmlns="http://www.w3.org/2000/svg">
<path d="M16.2222 5.55556H7.33333C6.35556 5.55556 5.55556 6.35556 5.55556 7.33333V16.2222C5.55556 17.2 6.35556 18 7.33333 18H16.2222C17.2 18 18 17.2 18 16.2222V7.33333C18 6.35556 17.2 5.55556 16.2222 5.55556ZM16.2222 8.22222C16.2222 8.71111 15.8222 9.11111 15.3333 9.11111H8.22222C7.73333 9.11111 7.33333 8.71111 7.33333 8.22222C7.33333 7.73333 7.73333 7.33333 8.22222 7.33333H15.3333C15.8222 7.33333 16.2222 7.73333 16.2222 8.22222ZM10.8889 12.6667V10.8889H12.6667V12.6667H10.8889ZM12.6667 14.4444V16.2222H10.8889V14.4444H12.6667ZM9.11111 12.6667H7.33333V10.8889H9.11111V12.6667ZM14.4444 10.8889H16.2222V12.6667H14.4444V10.8889ZM7.33333 14.4444H9.11111V16.2222H7.33333V14.4444ZM14.4444 16.2222V14.4444H16.2222V16.2222H14.4444ZM4.66667 14.4444H3.77778C2.8 14.4444 2 13.6444 2 12.6667V3.77778C2 2.8 2.8 2 3.77778 2H12.6667C13.6444 2 14.4444 2.8 14.4444 3.77778V4.66667H12.6667V3.77778H3.77778V12.6667H4.66667V14.4444Z" />
</svg>
