<svg width="20" height="20" viewBox="0 0 20 20" xmlns="http://www.w3.org/2000/svg">
<path fill-rule="evenodd" clip-rule="evenodd" d="M16.2222 3H15.3333V2.125C15.3333 1.64375 14.9333 1.25 14.4444 1.25C13.9556 1.25 13.5556 1.64375 13.5556 2.125V3H6.44444V2.125C6.44444 1.64375 6.04445 1.25 5.55556 1.25C5.06667 1.25 4.66667 1.64375 4.66667 2.125V3H3.77778C2.79111 3 2.00889 3.7875 2.00889 4.75L2 17C2 17.9625 2.79111 18.75 3.77778 18.75H16.2222C17.2 18.75 18 17.9625 18 17V4.75C18 3.7875 17.2 3 16.2222 3ZM16.2222 16.125C16.2222 16.6062 15.8222 17 15.3333 17H4.66667C4.17778 17 3.77778 16.6062 3.77778 16.125V7.375H16.2222V16.125ZM6.44444 9.125C5.95352 9.125 5.55556 9.51675 5.55556 10C5.55556 10.4832 5.95352 10.875 6.44444 10.875C6.93536 10.875 7.33333 10.4832 7.33333 10C7.33333 9.51675 6.93536 9.125 6.44444 9.125ZM9.11111 10C9.11111 9.51675 9.50908 9.125 10 9.125C10.4909 9.125 10.8889 9.51675 10.8889 10C10.8889 10.4832 10.4909 10.875 10 10.875C9.50908 10.875 9.11111 10.4832 9.11111 10ZM13.5556 9.125C13.0646 9.125 12.6667 9.51675 12.6667 10C12.6667 10.4832 13.0646 10.875 13.5556 10.875C14.0465 10.875 14.4444 10.4832 14.4444 10C14.4444 9.51675 14.0465 9.125 13.5556 9.125Z" />
</svg>
