<svg width="20" height="20" viewBox="0 0 20 20" xmlns="http://www.w3.org/2000/svg">
<path id="path" fill-rule="evenodd" clip-rule="evenodd" d="M3.72497 17.0864H16.275C17.5583 17.0864 18.3583 15.6948 17.7166 14.5864L11.4416 3.74476C10.8 2.63643 9.19997 2.63643 8.5583 3.74476L2.2833 14.5864C1.64164 15.6948 2.44164 17.0864 3.72497 17.0864ZM9.99999 11.2531C9.54166 11.2531 9.16666 10.8781 9.16666 10.4198V8.75309C9.16666 8.29475 9.54166 7.91975 9.99999 7.91975C10.4583 7.91975 10.8333 8.29475 10.8333 8.75309V10.4198C10.8333 10.8781 10.4583 11.2531 9.99999 11.2531ZM9.16666 14.5864H10.8333V12.9198H9.16666V14.5864Z" />
</svg>
