<svg width="20" height="20" viewBox="0 0 20 20" xmlns="http://www.w3.org/2000/svg">
<path d="M12.8125 10C12.8125 8.4467 11.5533 7.1875 10 7.1875C8.4467 7.1875 7.1875 8.4467 7.1875 10C7.1875 11.5533 8.4467 12.8125 10 12.8125C11.5533 12.8125 12.8125 11.5533 12.8125 10Z" />
<path fill-rule="evenodd" clip-rule="evenodd" d="M1 10C1 5.02944 5.02944 1 10 1C14.9706 1 19 5.02944 19 10C19 14.9706 14.9706 19 10 19C5.02944 19 1 14.9706 1 10ZM2.63635 9.99987C2.63635 5.93304 5.93316 2.63623 9.99999 2.63623C14.0668 2.63623 17.3636 5.93304 17.3636 9.99987C17.3636 14.0667 14.0668 17.3635 9.99999 17.3635C5.93316 17.3635 2.63635 14.0667 2.63635 9.99987Z" />
</svg>
