<svg width="20" height="20" viewBox="0 0 20 20" xmlns="http://www.w3.org/2000/svg">
<path d="M17.3603 6.09766H2.63968C1.73556 6.09766 1 6.80736 1 7.67969V14.0078C1 14.8801 1.73556 15.5898 2.63968 15.5898H17.3603C18.2644 15.5898 19 14.8801 19 14.0078V7.67969C19 6.80736 18.2644 6.09766 17.3603 6.09766ZM5.32659 11.6642C5.18686 11.6642 4.94812 11.6652 4.72465 11.6663V12.8826C4.72465 13.1738 4.47994 13.4099 4.17809 13.4099C3.87625 13.4099 3.63153 13.1738 3.63153 12.8826L3.62348 8.87669C3.62301 8.73655 3.6804 8.60198 3.78293 8.5027C3.88547 8.40341 4.0248 8.34766 4.17004 8.34766H5.32659C6.28694 8.34766 7.06826 9.09156 7.06826 10.0059C7.06826 10.9203 6.28694 11.6642 5.32659 11.6642ZM10.0185 13.2828C9.69302 13.2882 8.87875 13.2912 8.84425 13.2914H8.84217C8.69795 13.2914 8.55953 13.2364 8.45714 13.1383C8.35424 13.0398 8.29616 12.9058 8.29561 12.7659C8.29557 12.7519 8.28745 8.87602 8.28745 8.87602C8.28719 8.73599 8.34462 8.60159 8.44715 8.50248C8.54969 8.40338 8.68888 8.34766 8.83401 8.34766H9.97559C11.2761 8.34766 12.1499 9.34103 12.1499 10.8195C12.1499 12.226 11.2535 13.2619 10.0185 13.2828ZM15.6194 10.2584C15.9212 10.2584 16.1659 10.4945 16.1659 10.7857C16.1659 11.077 15.9212 11.3131 15.6194 11.3131H14.6275V12.8125C14.6275 13.1037 14.3828 13.3398 14.081 13.3398C13.7791 13.3398 13.5344 13.1037 13.5344 12.8125V8.83429C13.5344 8.54305 13.7791 8.30695 14.081 8.30695H15.7521C16.0539 8.30695 16.2987 8.54305 16.2987 8.83429C16.2987 9.12552 16.0539 9.36163 15.7521 9.36163H14.6275V10.2584H15.6194Z" />
<path d="M9.97492 9.40234H9.38089C9.38173 9.87836 9.38472 11.7759 9.38625 12.2339C9.61368 12.2325 9.85723 12.2306 9.99879 12.2282C10.7292 12.2159 11.0561 11.5118 11.0561 10.8195C11.056 10.4871 10.9781 9.40234 9.97492 9.40234Z" />
<path d="M5.32717 9.40234H4.71881C4.71947 9.63701 4.72009 9.88667 4.72009 10.0059C4.72009 10.1453 4.72111 10.3871 4.72227 10.6116C4.94658 10.6105 5.18619 10.6095 5.3272 10.6095C5.67875 10.6095 5.97575 10.3331 5.97575 10.0059C5.97575 9.67875 5.67871 9.40234 5.32717 9.40234Z" />
<path d="M16.7936 5.04297C16.6669 4.70793 16.4701 4.39827 16.2096 4.13313L13.9394 1.82262C13.4257 1.29985 12.7028 1 11.9562 1H4.67978C3.77566 1 3.0401 1.7097 3.0401 2.58203V5.04297H16.7936Z" />
<path d="M3.041 16.6445V17.418C3.041 18.2903 3.77655 19 4.68067 19H15.3204C16.2245 19 16.96 18.2903 16.96 17.418V16.6445H3.041Z" />
</svg>
