<svg width="20" height="20" viewBox="0 0 20 20" xmlns="http://www.w3.org/2000/svg">
<path d="M7.5 7.5V12.5H12.5V7.5H7.5Z" />
<path fill-rule="evenodd" clip-rule="evenodd" d="M2 4C2 2.89543 2.89543 2 4 2H16C17.1046 2 18 2.89543 18 4V16C18 17.1046 17.1046 18 16 18H4C2.89543 18 2 17.1046 2 16V4ZM3.45454 4.45443C3.45454 3.90214 3.90225 3.45443 4.45454 3.45443H15.5454C16.0977 3.45443 16.5454 3.90214 16.5454 4.45443V15.5453C16.5454 16.0976 16.0977 16.5453 15.5454 16.5453H4.45454C3.90225 16.5453 3.45454 16.0976 3.45454 15.5453V4.45443Z" />
</svg>
