<svg width="20" height="20" viewBox="0 0 20 20" xmlns="http://www.w3.org/2000/svg">
<path id="path" fill-rule="evenodd" clip-rule="evenodd" d="M1.66666 9.99999C1.66666 5.39999 5.39999 1.66666 9.99999 1.66666C14.6 1.66666 18.3333 5.39999 18.3333 9.99999C18.3333 14.6 14.6 18.3333 9.99999 18.3333C5.39999 18.3333 1.66666 14.6 1.66666 9.99999ZM8.33331 11.8083L13.2333 6.90835C13.5583 6.58335 14.0916 6.58335 14.4166 6.90835C14.7416 7.23335 14.7416 7.75835 14.4166 8.08335L8.92498 13.575C8.59998 13.9 8.07498 13.9 7.74998 13.575L5.59165 11.4167C5.26665 11.0917 5.26665 10.5667 5.59165 10.2417C5.74734 10.0856 5.95871 9.99794 6.17915 9.99794C6.39958 9.99794 6.61095 10.0856 6.76665 10.2417L8.33331 11.8083Z" />
</svg>
