<svg width="20" height="20" viewBox="0 0 20 20" xmlns="http://www.w3.org/2000/svg">
<path fill-rule="evenodd" clip-rule="evenodd" d="M3.77778 2H16.2222C17.2 2 18 2.8 18 3.77778V16.2222C18 17.2 17.2 18 16.2222 18H3.77778C2.8 18 2 17.2 2 16.2222V13.5556C2 13.0667 2.4 12.6667 2.88889 12.6667C3.37778 12.6667 3.77778 13.0667 3.77778 13.5556V15.3333C3.77778 15.8222 4.17778 16.2222 4.66667 16.2222H15.3333C15.8222 16.2222 16.2222 15.8222 16.2222 15.3333V4.66667C16.2222 4.17778 15.8222 3.77778 15.3333 3.77778H4.66667C4.17778 3.77778 3.77778 4.17778 3.77778 4.66667V6.44444C3.77778 6.93333 3.37778 7.33333 2.88889 7.33333C2.4 7.33333 2 6.93333 2 6.44444V3.77778C2 2.8 2.79111 2 3.77778 2ZM13.3689 10.6222L10.1778 13.8133C9.83111 14.16 9.27111 14.16 8.92445 13.8133C8.58667 13.4756 8.57778 12.9067 8.92445 12.56L10.5956 10.8889H2.88889C2.4 10.8889 2 10.4889 2 10C2 9.51111 2.4 9.11111 2.88889 9.11111H10.5956L8.92445 7.43111C8.57778 7.08444 8.57778 6.52444 8.92445 6.17777C9.09052 6.01133 9.31599 5.91779 9.55111 5.91779C9.78624 5.91779 10.0117 6.01133 10.1778 6.17777L13.3689 9.36889C13.7156 9.71555 13.7156 10.2756 13.3689 10.6222Z" />
</svg>
