<svg width="20" height="20" viewBox="0 0 20 20" xmlns="http://www.w3.org/2000/svg">
<path fill-rule="evenodd" clip-rule="evenodd" d="M5.5 2H14.5C14.995 2 15.4 2.4 15.4 2.88889V4.66667C15.4 5.15556 14.995 5.55556 14.5 5.55556H5.5C5.005 5.55556 4.6 5.15556 4.6 4.66667V2.88889C4.6 2.4 5.005 2 5.5 2ZM3.7 6.44445H16.3C17.794 6.44445 19 7.63556 19 9.11111V12.6667C19 13.6444 18.19 14.4444 17.2 14.4444H15.4V16.2222C15.4 17.2 14.59 18 13.6 18H6.4C5.41 18 4.6 17.2 4.6 16.2222V14.4444H2.8C1.81 14.4444 1 13.6444 1 12.6667V9.11111C1 7.63556 2.206 6.44445 3.7 6.44445ZM7.3 16.2222H12.7C13.195 16.2222 13.6 15.8222 13.6 15.3333V11.7778H6.4V15.3333C6.4 15.8222 6.805 16.2222 7.3 16.2222ZM16.3 10C15.805 10 15.4 9.6 15.4 9.11111C15.4 8.62222 15.805 8.22222 16.3 8.22222C16.795 8.22222 17.2 8.62222 17.2 9.11111C17.2 9.6 16.795 10 16.3 10Z" />
</svg>
