<svg width="20" height="20" viewBox="0 0 20 20" xmlns="http://www.w3.org/2000/svg">
<path d="M15.6594 9.16672H6.35103L10.4177 5.10006C10.7427 4.77506 10.7427 4.24172 10.4177 3.91672C10.0927 3.59172 9.5677 3.59172 9.2427 3.91672L3.75103 9.40839C3.59499 9.56408 3.50729 9.77546 3.50729 9.99589C3.50729 10.2163 3.59499 10.4277 3.75103 10.5834L9.23437 16.0834C9.55937 16.4084 10.0844 16.4084 10.4094 16.0834C10.7344 15.7584 10.7344 15.2334 10.4094 14.9084L6.35103 10.8334H15.6594C16.1177 10.8334 16.4927 10.4584 16.4927 10.0001C16.4927 9.54172 16.1177 9.16672 15.6594 9.16672Z" />
</svg>
