<svg width="20" height="20" viewBox="0 0 20 20" xmlns="http://www.w3.org/2000/svg">
<path fill-rule="evenodd" clip-rule="evenodd" d="M17.363 1H5.91C5.01 1 4.274 1.736 4.274 2.636V14.091C4.274 14.991 5.01 15.727 5.91 15.727H17.364C18.264 15.727 19.001 14.991 19.001 14.091V2.636C19 1.736 18.264 1 17.363 1ZM1 5.09C1.00079 4.87339 1.08726 4.66589 1.24052 4.51282C1.39378 4.35974 1.60139 4.27353 1.818 4.273C2.03478 4.27353 2.24254 4.35988 2.39583 4.51317C2.54912 4.66646 2.63547 4.87422 2.636 5.091V16.545C2.636 16.995 3.005 17.363 3.455 17.363H14.909C15.126 17.3635 15.3339 17.45 15.4872 17.6035C15.6405 17.757 15.7267 17.965 15.727 18.182C15.7265 18.3988 15.6401 18.6065 15.4868 18.7598C15.3335 18.9131 15.1258 18.9995 14.909 19H2.636C1.736 19 1 18.264 1 17.363V5.091V5.09ZM10.99 11.497L12.913 9.027C12.951 8.97743 12.9999 8.93728 13.0559 8.90964C13.1119 8.882 13.1735 8.86763 13.236 8.86763C13.2985 8.86763 13.3601 8.882 13.4161 8.90964C13.4721 8.93728 13.521 8.97743 13.559 9.027L15.646 11.8C15.6915 11.8608 15.7192 11.9331 15.7259 12.0088C15.7326 12.0844 15.7181 12.1605 15.6841 12.2284C15.65 12.2963 15.5978 12.3533 15.5331 12.3932C15.4684 12.433 15.394 12.4541 15.318 12.454H7.971C7.89451 12.4534 7.81972 12.4313 7.75508 12.3904C7.69045 12.3495 7.63856 12.2913 7.60527 12.2224C7.57197 12.1536 7.55861 12.0768 7.5667 12.0007C7.57478 11.9246 7.60398 11.8523 7.651 11.792L9.076 9.967C9.11372 9.91875 9.1618 9.87959 9.21668 9.85241C9.27156 9.82523 9.33184 9.81072 9.39308 9.80995C9.45432 9.80918 9.51495 9.82218 9.57049 9.84797C9.62604 9.87377 9.67508 9.91171 9.714 9.959L10.99 11.497ZM6.727 14.091H16.546C16.7628 14.0905 16.9705 14.0041 17.1238 13.8508C17.2771 13.6975 17.3635 13.4898 17.364 13.273V3.454C17.3635 3.23704 17.277 3.02914 17.1235 2.87582C16.97 2.7225 16.762 2.63626 16.545 2.636H6.728C6.51122 2.63653 6.30346 2.72288 6.15017 2.87617C5.99688 3.02946 5.91053 3.23722 5.91 3.454V13.273C5.91 13.723 6.278 14.091 6.728 14.091H6.727Z" />
</svg>
