<svg width="20" height="20" viewBox="0 0 20 20" fill="none" xmlns="http://www.w3.org/2000/svg">
<path fill-rule="evenodd" clip-rule="evenodd" d="M5.60605 9.54545C5.27134 9.54545 4.99999 9.8168 4.99999 10.1515V16.2121C4.99999 16.5468 5.27134 16.8182 5.60605 16.8182H14.3939C14.7287 16.8182 15 16.5468 15 16.2121V10.1515C15 9.8168 14.7287 9.54545 14.3939 9.54545H5.60605ZM6.66666 13.9394C6.58298 13.9394 6.51515 14.0072 6.51515 14.0909V15.303C6.51515 15.3867 6.58298 15.4545 6.66666 15.4545H9.0909C9.17458 15.4545 9.24242 15.3867 9.24242 15.303V14.0909C9.24242 14.0072 9.17458 13.9394 9.0909 13.9394H6.66666ZM10.7576 14.0909C10.7576 14.0072 10.8254 13.9394 10.9091 13.9394H13.3333C13.417 13.9394 13.4848 14.0072 13.4848 14.0909V15.303C13.4848 15.3867 13.417 15.4545 13.3333 15.4545H10.9091C10.8254 15.4545 10.7576 15.3867 10.7576 15.303V14.0909ZM10.9091 10.9091C10.8254 10.9091 10.7576 10.9769 10.7576 11.0606V12.2727C10.7576 12.3564 10.8254 12.4242 10.9091 12.4242H13.3333C13.417 12.4242 13.4848 12.3564 13.4848 12.2727V11.0606C13.4848 10.9769 13.417 10.9091 13.3333 10.9091H10.9091ZM6.51515 11.0606C6.51515 10.9769 6.58298 10.9091 6.66666 10.9091H9.0909C9.17458 10.9091 9.24242 10.9769 9.24242 11.0606V12.2727C9.24242 12.3564 9.17458 12.4242 9.0909 12.4242H6.66666C6.58298 12.4242 6.51515 12.3564 6.51515 12.2727V11.0606Z" fill="#45B26B"/>
<path fill-rule="evenodd" clip-rule="evenodd" d="M4.54545 0C3.03922 0 1.81818 1.221 1.81818 2.72727V17.2727C1.81818 18.779 3.03922 20 4.54545 20H15.4545C16.9608 20 18.1818 18.779 18.1818 17.2727V7.86858C18.1818 7.38977 17.9929 6.93034 17.6561 6.58987L11.67 0.539477C11.3285 0.194277 10.8631 0 10.3775 0H4.54545ZM4.54545 1.81818C4.04337 1.81818 3.63636 2.22523 3.63636 2.72727V17.2727C3.63636 17.7748 4.04337 18.1818 4.54545 18.1818H15.4545C15.9566 18.1818 16.3636 17.7748 16.3636 17.2727V8.18182H12.7273C11.221 8.18182 9.99999 6.96082 9.99999 5.45455V1.81818H4.54545ZM11.8182 3.0303L15.1515 6.36364H12.7273C12.2252 6.36364 11.8182 5.95659 11.8182 5.45455V3.0303Z" fill="#45B26B"/>
</svg>
