<svg width="20" height="20" viewBox="0 0 20 20" xmlns="http://www.w3.org/2000/svg">
<path fill-rule="evenodd" clip-rule="evenodd" d="M12.5 7.91667H13.825C14.5667 7.91667 14.9333 8.81667 14.4083 9.34167L10.5833 13.1667C10.2583 13.4917 9.73332 13.4917 9.40832 13.1667L5.58332 9.34167C5.05832 8.81667 5.43332 7.91667 6.17499 7.91667H7.49999V3.75001C7.49999 3.29167 7.87499 2.91667 8.33332 2.91667H11.6667C12.125 2.91667 12.5 3.29167 12.5 3.75001V7.91667ZM4.99999 17.0833C4.54166 17.0833 4.16666 16.7083 4.16666 16.25C4.16666 15.7917 4.54166 15.4167 4.99999 15.4167H15C15.4583 15.4167 15.8333 15.7917 15.8333 16.25C15.8333 16.7083 15.4583 17.0833 15 17.0833H4.99999Z" />
</svg>
