<svg width="20" height="20" viewBox="0 0 20 20" fill="none" xmlns="http://www.w3.org/2000/svg">
<path fill-rule="evenodd" clip-rule="evenodd" d="M1.81818 2.72727C1.81818 1.221 3.03922 0 4.54545 0H10.3775C10.8631 0 11.3285 0.194277 11.67 0.539477L17.6561 6.58987C17.9929 6.93034 18.1818 7.38977 18.1818 7.86858V17.2727C18.1818 18.779 16.9608 20 15.4545 20H4.54545C3.03922 20 1.81818 18.779 1.81818 17.2727V2.72727ZM3.63636 2.72727C3.63636 2.22523 4.04337 1.81818 4.54545 1.81818H9.99999V5.45455C9.99999 6.96082 11.221 8.18182 12.7273 8.18182H16.3636V17.2727C16.3636 17.7748 15.9566 18.1818 15.4545 18.1818H4.54545C4.04337 18.1818 3.63636 17.7748 3.63636 17.2727V2.72727ZM15.1515 6.36364L11.8182 3.0303V5.45455C11.8182 5.95659 12.2252 6.36364 12.7273 6.36364H15.1515Z" fill="#BDBDBD"/>
</svg>
