<svg width="20" height="20" viewBox="0 0 20 20" xmlns="http://www.w3.org/2000/svg">
<path d="M12.714 5.28158C11.6978 3.30608 9.57209 2 7.18771 2C3.77594 2 1.00027 4.62765 1.00027 7.85746C1.00027 8.7352 1.1982 9.5765 1.58885 10.3609L1.0105 13.1144C0.936885 13.4649 1.26166 13.7747 1.62988 13.7054L4.55763 13.1543C4.95183 13.3323 5.35964 13.4677 5.77866 13.561C4.8394 9.3255 8.21141 5.3498 12.714 5.28158Z" />
<path d="M18.4113 14.6453C18.5123 14.4425 18.6002 14.2357 18.6753 14.0256H18.656C19.9725 10.3466 17.2039 6.47986 13.1166 6.29159C13.1165 6.29138 13.1167 6.29179 13.1166 6.29159C9.59975 6.13728 6.6777 8.81759 6.6777 12.1419C6.6777 15.369 9.43255 17.9945 12.8209 17.9992C13.74 17.9981 14.621 17.8097 15.4425 17.4387C18.6489 18.0422 18.3989 17.9993 18.4725 17.9993C18.8057 17.9993 19.0547 17.7086 18.9896 17.3988L18.4113 14.6453Z" />
</svg>
