<svg width="20" height="20" viewBox="0 0 20 20" xmlns="http://www.w3.org/2000/svg">
<path fill-rule="evenodd" clip-rule="evenodd" d="M14.1891 12.608H13.3554L13.06 12.3231C14.3262 10.8458 14.9805 8.83036 14.6217 6.68827C14.1257 3.75477 11.6776 1.41219 8.72304 1.05342C4.25948 0.504709 0.513461 4.26128 1.05162 8.72484C1.41039 11.6794 3.75297 14.1275 6.68647 14.6235C8.82856 14.9823 10.844 14.328 12.3213 13.0618L12.6062 13.3572V14.1909L17.1014 18.6755C17.5341 19.1082 18.2305 19.1082 18.6632 18.6755L18.6737 18.665C19.1064 18.2323 19.1064 17.5359 18.6737 17.1032L14.1891 12.608ZM7.85776 12.608C5.23028 12.608 3.10929 10.487 3.10929 7.85956C3.10929 5.23207 5.23028 3.11109 7.85776 3.11109C10.4852 3.11109 12.6062 5.23207 12.6062 7.85956C12.6062 10.487 10.4852 12.608 7.85776 12.608ZM7.33015 5.74913C7.33015 5.45367 7.5623 5.22152 7.85776 5.22152C8.15322 5.22152 8.38537 5.45367 8.38537 5.74913V7.33195H9.96819C10.2637 7.33195 10.4958 7.5641 10.4958 7.85956C10.4958 8.15502 10.2637 8.38717 9.96819 8.38717H8.38537V9.96999C8.38537 10.2655 8.15322 10.4976 7.85776 10.4976C7.5623 10.4976 7.33015 10.2655 7.33015 9.96999V8.38717H5.74733C5.45187 8.38717 5.21972 8.15502 5.21972 7.85956C5.21972 7.5641 5.45187 7.33195 5.74733 7.33195H7.33015V5.74913Z" />
</svg>
