<svg width="20" height="20" viewBox="0 0 20 20" fill="none" xmlns="http://www.w3.org/2000/svg">
<path d="M11.431 9.28986C11.5159 9.16521 11.6552 9.09091 11.8038 9.09091H12.7267C13.0937 9.09091 13.3093 9.51265 13.0995 9.82044L11.0151 12.8788L13.0995 15.9371C13.3093 16.2449 13.0937 16.6667 12.7267 16.6667H11.8039C11.6552 16.6667 11.5159 16.5924 11.431 16.4677L9.99999 14.3681L8.56901 16.4677C8.48405 16.5924 8.34479 16.6667 8.19613 16.6667H7.27333C6.90624 16.6667 6.69069 16.2449 6.90046 15.9371L8.98491 12.8788L6.90047 9.82044C6.69069 9.51265 6.90625 9.09091 7.27334 9.09091H8.19614C8.3448 9.09091 8.48406 9.16521 8.56901 9.28986L9.99999 11.3894L11.431 9.28986Z" fill="#45B26B"/>
<path fill-rule="evenodd" clip-rule="evenodd" d="M4.54545 0C3.03922 0 1.81818 1.221 1.81818 2.72727V17.2727C1.81818 18.779 3.03922 20 4.54545 20H15.4545C16.9608 20 18.1818 18.779 18.1818 17.2727V7.86858C18.1818 7.38977 17.9929 6.93034 17.6561 6.58987L11.67 0.539477C11.3285 0.194277 10.8631 0 10.3775 0H4.54545ZM4.54545 1.81818C4.04337 1.81818 3.63636 2.22523 3.63636 2.72727V17.2727C3.63636 17.7748 4.04337 18.1818 4.54545 18.1818H15.4545C15.9566 18.1818 16.3636 17.7748 16.3636 17.2727V8.18182H12.7273C11.221 8.18182 9.99999 6.96082 9.99999 5.45455V1.81818H4.54545ZM11.8182 3.0303L15.1515 6.36364H12.7273C12.2252 6.36364 11.8182 5.95659 11.8182 5.45455V3.0303Z" fill="#45B26B"/>
</svg>
