<svg width="20" height="20" viewBox="0 0 20 20" xmlns="http://www.w3.org/2000/svg">
<path d="M2.889 10.89C3.378 10.89 3.778 10.49 3.778 9.99999C3.778 9.50999 3.378 9.10999 2.888 9.10999C2.4 9.10999 2 9.50999 2 9.99999C2 10.49 2.4 10.89 2.889 10.89ZM2.889 14.45C3.378 14.45 3.778 14.05 3.778 13.56C3.778 13.07 3.378 12.67 2.888 12.67C2.4 12.67 2 13.07 2 13.56C2 14.05 2.4 14.45 2.889 14.45ZM2.889 7.32999C3.378 7.32999 3.778 6.92999 3.778 6.43999C3.778 5.94999 3.378 5.54999 2.888 5.54999C2.4 5.54999 2 5.94999 2 6.43999C2 6.92999 2.4 7.32999 2.889 7.32999ZM6.444 10.89H17.111C17.6 10.89 18 10.49 18 9.99999C18 9.50999 17.6 9.10999 17.111 9.10999H6.444C5.956 9.10999 5.556 9.50999 5.556 9.99999C5.556 10.49 5.956 10.89 6.444 10.89ZM6.444 14.45H17.111C17.6 14.45 18 14.05 18 13.56C18 13.07 17.6 12.67 17.111 12.67H6.444C5.956 12.67 5.556 13.07 5.556 13.56C5.556 14.05 5.956 14.45 6.444 14.45ZM5.556 6.43999C5.556 6.92999 5.956 7.32999 6.444 7.32999H17.111C17.6 7.32999 18 6.92999 18 6.43999C18 5.94999 17.6 5.54999 17.111 5.54999H6.444C5.956 5.54999 5.556 5.94999 5.556 6.43999Z" />
</svg>
