<svg width="20" height="20" viewBox="0 0 20 20" xmlns="http://www.w3.org/2000/svg">
<path id="path" d="M3.48835 14.8038L7.90501 10.3871L10.6133 13.0954C10.955 13.4371 11.505 13.4204 11.8217 13.0621L17.7967 6.33709C18.0883 6.01209 18.0717 5.51209 17.7633 5.19543C17.43 4.86209 16.8717 4.87043 16.555 5.22876L11.23 11.2121L8.48835 8.47043C8.33266 8.31438 8.12128 8.22669 7.90085 8.22669C7.68042 8.22669 7.46904 8.31438 7.31335 8.47043L2.23835 13.5538C1.91335 13.8788 1.91335 14.4038 2.23835 14.7288L2.31335 14.8038C2.63835 15.1288 3.17168 15.1288 3.48835 14.8038Z" />
</svg>
