<svg width="20" height="20" viewBox="0 0 20 20" xmlns="http://www.w3.org/2000/svg">
<path fill-rule="evenodd" clip-rule="evenodd" d="M3.77778 15.3333C3.77778 15.8222 4.17778 16.2222 4.66667 16.2222H15.3333C15.8222 16.2222 16.2222 15.8222 16.2222 15.3333V10.8889C16.2222 10.4 16.6222 10 17.1111 10C17.6 10 18 10.4 18 10.8889V16.2222C18 17.2 17.2 18 16.2222 18H3.77778C2.8 18 2 17.2 2 16.2222V3.77778C2 2.8 2.79111 2 3.77778 2H9.11111C9.6 2 10 2.4 10 2.88889C10 3.37778 9.6 3.77778 9.11111 3.77778H4.66667C4.17778 3.77778 3.77778 4.17778 3.77778 4.66667V15.3333ZM12.6667 3.77778C12.1778 3.77778 11.7778 3.37778 11.7778 2.88889C11.7778 2.4 12.1778 2 12.6667 2H17.1111C17.6 2 18 2.4 18 2.88889V7.33333C18 7.82222 17.6 8.22222 17.1111 8.22222C16.6222 8.22222 16.2222 7.82222 16.2222 7.33333V5.03111L8.10666 13.1467C7.75999 13.4933 7.19999 13.4933 6.85333 13.1467C6.50666 12.8 6.50666 12.24 6.85333 11.8933L14.9689 3.77778H12.6667Z" />
</svg>
