<svg width="20" height="20" viewBox="0 0 20 20" xmlns="http://www.w3.org/2000/svg">
<path d="M14.9091 10.8182V12.4545L17.3636 10L14.9091 7.54545V9.18182H11.4174C11.1345 8.69271 10.6057 8.36364 10 8.36364C9.09626 8.36364 8.36364 9.09626 8.36364 10C8.36364 10.9037 9.09626 11.6364 10 11.6364C10.6057 11.6364 11.1345 11.3073 11.4174 10.8182H14.9091Z" />
<path fill-rule="evenodd" clip-rule="evenodd" d="M19 10C19 14.9705 14.9706 19 10 19C5.02944 19 1 14.9705 1 10C1 5.02949 5.02944 1 10 1C14.9706 1 19 5.02949 19 10ZM17.3636 10C17.3636 14.0668 14.0668 17.3636 10 17.3636C5.93319 17.3636 2.63636 14.0668 2.63636 10C2.63636 5.93316 5.93319 2.63636 10 2.63636C14.0668 2.63636 17.3636 5.93316 17.3636 10Z" />
</svg>
