<svg width="20" height="20" viewBox="0 0 20 20" xmlns="http://www.w3.org/2000/svg">
<path id="path" fill-rule="evenodd" clip-rule="evenodd" d="M5 7C5 7.55 4.55 8 4 8C3.45 8 3 7.55 3 7V4C3 3.45 3.45 3 4 3H7C7.55 3 8 3.45 8 4C8 4.55 7.55 5 7 5H5V7ZM3 13C3 12.45 3.45 12 4 12C4.55 12 5 12.45 5 13V15H7C7.55 15 8 15.45 8 16C8 16.55 7.55 17 7 17H4C3.45 17 3 16.55 3 16V13ZM15 15H13C12.45 15 12 15.45 12 16C12 16.55 12.45 17 13 17H16C16.55 17 17 16.55 17 16V13C17 12.45 16.55 12 16 12C15.45 12 15 12.45 15 13V15ZM13 5C12.45 5 12 4.55 12 4C12 3.45 12.45 3 13 3H16C16.55 3 17 3.45 17 4V7C17 7.55 16.55 8 16 8C15.45 8 15 7.55 15 7V5H13Z" />
</svg>
