<svg width="20" height="20" viewBox="0 0 20 20" xmlns="http://www.w3.org/2000/svg">
<path id="path" fill-rule="evenodd" clip-rule="evenodd" d="M10.0001 18.3334C14.6001 18.3334 18.3334 14.6001 18.3334 10.0001C18.3334 5.40008 14.6001 1.66675 10.0001 1.66675C5.40008 1.66675 1.66675 5.40008 1.66675 10.0001C1.66675 14.6001 5.40008 18.3334 10.0001 18.3334ZM10.0001 9.16675C10.4584 9.16675 10.8334 9.54175 10.8334 10.0001V13.3334C10.8334 13.7917 10.4584 14.1667 10.0001 14.1667C9.54175 14.1667 9.16675 13.7917 9.16675 13.3334V10.0001C9.16675 9.54175 9.54175 9.16675 10.0001 9.16675ZM10.8334 7.50008V5.83342H9.16675V7.50008H10.8334Z" />
</svg>
