<svg width="20" height="20" viewBox="0 0 20 20" xmlns="http://www.w3.org/2000/svg">
<path d="M16.9016 3.09837C15.4371 1.63388 13.0627 1.63388 11.5982 3.09834L8.46387 6.23252C6.94898 7.74741 7.08923 10.1612 8.46387 11.5358C8.69407 11.766 8.94877 11.9536 9.21771 12.1078L9.78976 11.5358C10.165 11.1605 10.0329 10.7219 10.0261 10.4053C9.9438 10.347 9.8637 10.2839 9.78976 10.21C9.08433 9.50462 9.05261 8.29544 9.78976 7.55832C9.89923 7.44886 12.8576 4.49065 12.924 4.42421C13.6553 3.69299 14.8445 3.69299 15.5757 4.42421C16.3069 5.15543 16.3069 6.34464 15.5757 7.07586L13.504 9.1475C13.5639 9.47897 13.9234 10.2641 13.7385 11.5594C13.7475 11.5505 13.7584 11.5448 13.7673 11.5358L16.9016 8.40166C18.3661 6.93717 18.3661 4.56287 16.9016 3.09837Z" />
<path d="M11.779 8.22136C11.5488 7.99118 11.2941 7.80349 11.0252 7.64933L10.4532 8.22136C10.0779 8.59655 10.21 9.03521 10.2168 9.35173C10.2992 9.41011 10.3792 9.47321 10.4532 9.54714C11.1586 10.2525 11.1903 11.4617 10.4532 12.1988C10.3435 12.3085 7.14009 15.5117 7.07599 15.5758C6.34475 16.3071 5.15549 16.3071 4.42425 15.5758C3.69301 14.8446 3.69301 13.6554 4.42425 12.9242L6.73892 10.6096C6.67901 10.2781 6.31944 9.49296 6.50441 8.19771C6.49538 8.20659 6.4845 8.21236 6.4755 8.22133L3.09836 11.5985C1.63388 13.0629 1.63388 15.4372 3.09836 16.9017C4.56291 18.3661 6.93727 18.3661 8.40181 16.9017L11.779 13.5247C13.2658 12.0379 13.1845 9.62683 11.779 8.22136Z" />
</svg>
