<svg width="20" height="20" viewBox="0 0 20 20" xmlns="http://www.w3.org/2000/svg">
<path id="path" fill-rule="evenodd" clip-rule="evenodd" d="M13 2.88889H15.1429C15.6143 2.88889 16 3.28889 16 3.77778C16 4.26667 15.6143 4.66667 15.1429 4.66667H4.85714C4.38571 4.66667 4 4.26667 4 3.77778C4 3.28889 4.38571 2.88889 4.85714 2.88889H7L7.60857 2.25778C7.76286 2.09778 7.98571 2 8.20857 2H11.7914C12.0143 2 12.2371 2.09778 12.3914 2.25778L13 2.88889ZM6.57143 18C5.62857 18 4.85714 17.2 4.85714 16.2222V7.33333C4.85714 6.35556 5.62857 5.55556 6.57143 5.55556H13.4286C14.3714 5.55556 15.1429 6.35556 15.1429 7.33333V16.2222C15.1429 17.2 14.3714 18 13.4286 18H6.57143Z" />
</svg>
