<svg width="20" height="20" viewBox="0 0 20 20" xmlns="http://www.w3.org/2000/svg">
<path id="path" fill-rule="evenodd" clip-rule="evenodd" d="M9.99999 4.16667C10.6417 4.16667 11.1667 4.69167 11.1667 5.33334V14.6667C11.1667 15.3083 10.6417 15.8333 9.99999 15.8333C9.35832 15.8333 8.83332 15.3083 8.83332 14.6667V5.33334C8.83332 4.69167 9.35832 4.16667 9.99999 4.16667ZM5.33332 7.66667H5.49999C6.14166 7.66667 6.66666 8.19167 6.66666 8.83334V14.6667C6.66666 15.3083 6.14166 15.8333 5.49999 15.8333H5.33332C4.69166 15.8333 4.16666 15.3083 4.16666 14.6667V8.83334C4.16666 8.19167 4.69166 7.66667 5.33332 7.66667ZM15.8333 12C15.8333 11.3583 15.3083 10.8333 14.6667 10.8333C14.025 10.8333 13.5 11.3583 13.5 12V14.6667C13.5 15.3083 14.025 15.8333 14.6667 15.8333C15.3083 15.8333 15.8333 15.3083 15.8333 14.6667V12Z" />
</svg>
