<svg width="112" height="28" viewBox="0 0 112 28" fill="none" xmlns="http://www.w3.org/2000/svg">
<g clip-path="url(#clip0_1_3)">
<path fill-rule="evenodd" clip-rule="evenodd" d="M75.0045 23.8197H71.3803V9.37014H74.9887H83.3808L84.2918 9.46084C85.0224 9.61106 85.7044 9.94008 86.2766 10.4184C86.8489 10.8968 87.2937 11.5096 87.5711 12.202C87.8485 12.8943 87.9499 13.6447 87.8663 14.3858C87.7826 15.127 87.5166 15.8359 87.0918 16.449L86.9814 16.5752L87.1865 16.7724C87.765 17.4841 88.0774 18.3752 88.0699 19.2924C88.0689 20.3318 87.71 21.3391 87.0535 22.145C86.397 22.9508 85.4831 23.506 84.4653 23.7172L83.5622 23.8079L75.0045 23.8197ZM83.582 20.2113L83.929 20.1363C84.1236 20.0569 84.2843 19.9121 84.3836 19.7269C84.4829 19.5416 84.5145 19.3276 84.4729 19.1216C84.4313 18.9156 84.3192 18.7305 84.1559 18.5983C83.9925 18.466 83.7882 18.3949 83.578 18.3972H75.0045V20.2073L83.582 20.2113ZM83.3966 14.7966C83.6051 14.7966 83.8071 14.7245 83.9684 14.5926C84.1298 14.4606 84.2405 14.2769 84.2818 14.0726C84.3231 13.8683 84.2925 13.656 84.1951 13.4717C84.0978 13.2874 83.9397 13.1424 83.7476 13.0614L83.3966 12.9944H75.0045V14.8006L83.3966 14.7966Z" fill="black"/>
<path d="M93.0546 9.37803H89.4501V23.8197H93.0546V9.37803Z" fill="black"/>
<path fill-rule="evenodd" clip-rule="evenodd" d="M94.8648 23.8197V20.2113H106.593C106.823 20.1961 107.038 20.0941 107.196 19.9261C107.353 19.758 107.441 19.5364 107.441 19.3062C107.441 19.076 107.353 18.8544 107.196 18.6863C107.038 18.5182 106.823 18.4163 106.593 18.4011H98.9228C97.7499 18.3664 96.6366 17.8761 95.8192 17.0342C95.0018 16.1923 94.5446 15.065 94.5446 13.8915C94.5446 12.7181 95.0018 11.5908 95.8192 10.7489C96.6366 9.90699 97.7499 9.41666 98.9228 9.38197H110.206V12.9944H98.9228C98.6823 12.9944 98.4515 13.0899 98.2814 13.26C98.1113 13.4301 98.0158 13.6608 98.0158 13.9014C98.0158 14.142 98.1113 14.3727 98.2814 14.5428C98.4515 14.7129 98.6823 14.8085 98.9228 14.8085H106.593C107.197 14.7906 107.798 14.894 108.36 15.1126C108.923 15.3312 109.436 15.6606 109.869 16.0811C110.302 16.5016 110.647 17.0048 110.882 17.5608C111.117 18.1168 111.238 18.7143 111.238 19.318C111.238 19.9217 111.117 20.5193 110.882 21.0753C110.647 21.6313 110.302 22.1345 109.869 22.555C109.436 22.9755 108.923 23.3048 108.36 23.5234C107.798 23.742 107.197 23.8455 106.593 23.8276H94.8648V23.8197Z" fill="black"/>
<path fill-rule="evenodd" clip-rule="evenodd" d="M65.4648 23.8158L56.4299 14.8006H65.5279L65.8789 14.7296C66.0422 14.659 66.1815 14.5423 66.2795 14.3938C66.3776 14.2453 66.4302 14.0715 66.431 13.8935C66.4305 13.7754 66.4067 13.6586 66.361 13.5497C66.3154 13.4408 66.2487 13.342 66.1648 13.2589C66.081 13.1757 65.9816 13.11 65.8723 13.0652C65.763 13.0205 65.646 12.9978 65.5279 12.9983H54.6276L51.0191 9.3938H65.5318L65.9932 9.41747C67.1437 9.53576 68.2048 10.0914 68.9574 10.9695C69.71 11.8477 70.0966 12.9813 70.0374 14.1364C69.9782 15.2914 69.4777 16.3795 68.6392 17.1761C67.8007 17.9727 66.6884 18.4169 65.5318 18.4169H65.1375L70.5521 23.8316L65.4648 23.8158Z" fill="black"/>
<path fill-rule="evenodd" clip-rule="evenodd" d="M54.182 15.4592L51.6501 17.991L43.0096 9.35831H48.1166L54.182 15.4592Z" fill="#0095FF"/>
<path fill-rule="evenodd" clip-rule="evenodd" d="M41.16 23.8197C39.2449 23.8197 37.4083 23.059 36.0541 21.7048C34.6999 20.3506 33.9392 18.514 33.9392 16.5989C33.9392 14.6838 34.6999 12.8471 36.0541 11.493C37.4083 10.1388 39.2449 9.37803 41.16 9.37803H43.0056L46.6259 12.9983H41.16C40.2241 13.0293 39.337 13.4228 38.6859 14.0958C38.0348 14.7687 37.6708 15.6684 37.6708 16.6048C37.6708 17.5412 38.0348 18.4409 38.6859 19.1138C39.337 19.7868 40.2241 20.1803 41.16 20.2113H47.9234C48.3985 20.2112 48.869 20.117 49.3075 19.9343C49.7461 19.7516 50.1442 19.4838 50.4789 19.1465L54.178 15.4513L56.7256 17.9949L53.0344 21.6901C51.8612 22.8668 50.3177 23.6023 48.6648 23.7724L47.9313 23.8079L41.16 23.8197Z" fill="black"/>
<path fill-rule="evenodd" clip-rule="evenodd" d="M14.2327 27.6766H14.1972L8.67606 22.1555H3.15493L2.88676 21.7966C1.44005 19.7318 0.5849 17.311 0.413671 14.7957C0.242442 12.2803 0.761637 9.76598 1.91519 7.52418C3.06874 5.28238 4.81281 3.39832 6.95906 2.07546C9.1053 0.752594 11.5722 0.0411993 14.0932 0.0180982C16.6143 -0.00500291 19.0938 0.661068 21.2639 1.94438C23.434 3.22769 25.2123 5.07948 26.4068 7.29976C27.6012 9.52004 28.1664 12.0244 28.0413 14.5425C27.9162 17.0606 27.1055 19.4966 25.6969 21.5876L25.2552 22.1831L19.7972 16.6974C19.3433 16.2438 18.8044 15.884 18.2114 15.6385C17.6184 15.3931 16.9829 15.2669 16.3411 15.2671C15.045 15.2674 13.8021 15.7827 12.8859 16.6994C11.9697 17.6162 11.4552 18.8593 11.4555 20.1555C11.4559 21.4516 11.9711 22.6945 12.8879 23.6107L16.7211 27.4479L15.6524 27.6056C15.1831 27.6529 14.7138 27.6727 14.2327 27.6727V27.6766ZM20.8225 26.0281C21.2169 25.8152 21.6113 25.5825 21.9662 25.3341L22.4907 24.9397L17.0327 19.462C16.943 19.3659 16.8349 19.2889 16.7149 19.2356C16.5948 19.1822 16.4652 19.1536 16.3339 19.1515C16.2025 19.1493 16.072 19.1736 15.9503 19.223C15.8285 19.2724 15.718 19.3457 15.6252 19.4388C15.5324 19.5318 15.4594 19.6426 15.4103 19.7645C15.3613 19.8864 15.3374 20.0169 15.3399 20.1483C15.3425 20.2796 15.3714 20.4091 15.4251 20.529C15.4788 20.6489 15.5561 20.7568 15.6524 20.8462L20.8225 26.0281Z" fill="#0095FF"/>
</g>
<defs>
<clipPath id="clip0_1_3">
<rect width="111.606" height="28" fill="white"/>
</clipPath>
</defs>
</svg>
